<svg width="36" height="36" viewBox="0 0 36 36" fill="none" xmlns="http://www.w3.org/2000/svg">
<path fill-rule="evenodd" clip-rule="evenodd" d="M17.9974 10C16.0981 10.001 14.2612 10.6737 12.815 11.8977C11.3688 13.1218 10.4076 14.8175 10.1034 16.6815C9.79911 18.5455 10.1716 20.4564 11.1543 22.0724C12.1369 23.6884 13.6656 24.9042 15.4671 25.5023C15.8645 25.5761 16.0142 25.3298 16.0142 25.1204C16.0142 24.9109 16.0062 24.3037 16.0036 23.6398C13.778 24.1206 13.3077 22.7006 13.3077 22.7006C12.9447 21.7786 12.4201 21.5362 12.4201 21.5362C11.6942 21.0436 12.4745 21.0528 12.4745 21.0528C13.2786 21.1094 13.7012 21.8734 13.7012 21.8734C14.4139 23.0892 15.5731 22.7375 16.0288 22.532C16.1003 22.017 16.3083 21.6666 16.5375 21.4677C14.7597 21.2675 12.8917 20.5852 12.8917 17.5371C12.8807 16.7466 13.1757 15.9822 13.7158 15.4019C13.6336 15.2017 13.3594 14.3929 13.7939 13.2944C13.7939 13.2944 14.4656 13.081 15.9943 14.1097C17.3056 13.7532 18.6891 13.7532 20.0004 14.1097C21.5278 13.081 22.1981 13.2944 22.1981 13.2944C22.634 14.3903 22.3598 15.1991 22.2776 15.4019C22.8193 15.9823 23.115 16.7481 23.103 17.5398C23.103 20.5944 21.2311 21.2675 19.4506 21.4638C19.7368 21.7114 19.9924 22.1948 19.9924 22.9377C19.9924 24.002 19.9832 24.8582 19.9832 25.1204C19.9832 25.3324 20.1276 25.5801 20.5329 25.5023C22.3346 24.9041 23.8634 23.6881 24.8461 22.0718C25.8287 20.4556 26.201 18.5444 25.8964 16.6802C25.5918 14.816 24.6302 13.1203 23.1835 11.8964C21.7368 10.6726 19.8995 10.0004 18 10H17.9974Z" fill="white"></path>
</svg>